<?xml version="1.0" encoding="utf-8"?><svg version="1.1" id="Layer_1" xmlns="http://www.w3.org/2000/svg" xmlns:xlink="http://www.w3.org/1999/xlink" x="0px" y="0px" viewBox="0 0 117.93 122.88" style="enable-background:new 0 0 117.93 122.88" xml:space="preserve"><style type="text/css">.st0{fill-rule:evenodd;clip-rule:evenodd;}</style><g><path class="st0" d="M8.1,0h101.74c2.88,0,5.23,2.36,5.23,5.23v28.41c0,2.88-2.36,5.23-5.23,5.23l-15.27,0v5.35h15.27 c2.88,0,5.23,2.36,5.23,5.23v28.41c0,2.88-2.36,5.23-5.23,5.23H94.57v15.18h7.85v7.83h15.51v9h-15.51v7.76l-24.69,0v-7.76l-35.9,0 v7.76l-24.69,0v-7.76l-17.14,0v-9h17.14v-7.83h7.84V83.11H8.1c-2.88,0-5.23-2.36-5.23-5.23V49.46c0-2.88,2.35-5.23,5.23-5.23h16.88 v-5.35H8.1c-2.88,0-5.23-2.36-5.23-5.23l0-28.41C2.86,2.35,5.22,0,8.1,0L8.1,0z M15.85,55.93h5.98V71.4h-5.98V55.93L15.85,55.93z M97.99,14.7c2.62,0,4.74,2.12,4.74,4.74c0,2.62-2.12,4.74-4.74,4.74c-2.62,0-4.74-2.12-4.74-4.74 C93.25,16.82,95.37,14.7,97.99,14.7L97.99,14.7z M79.94,14.7c2.62,0,4.74,2.12,4.74,4.74c0,2.62-2.12,4.74-4.74,4.74 c-2.62,0-4.74-2.12-4.74-4.74C75.2,16.82,77.33,14.7,79.94,14.7L79.94,14.7z M48.89,11.7h5.98v15.47h-5.98V11.7L48.89,11.7z M32.37,11.7h5.98v15.47h-5.98V11.7L32.37,11.7z M15.85,11.7h5.98v15.47h-5.98V11.7L15.85,11.7z M97.99,58.93 c2.62,0,4.74,2.12,4.74,4.74c0,2.62-2.12,4.74-4.74,4.74c-2.62,0-4.74-2.12-4.74-4.74C93.25,61.05,95.37,58.93,97.99,58.93 L97.99,58.93z M79.94,58.93c2.62,0,4.74,2.12,4.74,4.74c0,2.62-2.12,4.74-4.74,4.74c-2.62,0-4.74-2.12-4.74-4.74 C75.2,61.05,77.33,58.93,79.94,58.93L79.94,58.93z M48.89,55.93h5.98V71.4h-5.98V55.93L48.89,55.93z M32.37,55.93h5.98V71.4h-5.98 V55.93L32.37,55.93z M90.07,104.98c3.1,0,5.61,2.51,5.61,5.61c0,3.1-2.51,5.61-5.61,5.61c-3.1,0-5.61-2.51-5.61-5.61 S86.98,104.98,90.07,104.98L90.07,104.98z M29.48,104.98c3.1,0,5.61,2.51,5.61,5.61c0,3.1-2.51,5.61-5.61,5.61 c-3.1,0-5.61-2.51-5.61-5.61S26.39,104.98,29.48,104.98L29.48,104.98z M41.83,106.12h35.9v-7.83l7.84,0V83.11H33.98v15.18h7.85 L41.83,106.12L41.83,106.12L41.83,106.12z M33.98,44.23h51.59v-5.35H33.98V44.23L33.98,44.23z"/></g></svg>